<?xml version="1.0" encoding="UTF-8" standalone="no"?>
<!-- Created with Inkscape (http://www.inkscape.org/) -->

<svg
   width="1024mm"
   height="500mm"
   viewBox="0 0 1024 500"
   version="1.1"
   id="svg1"
   inkscape:version="1.3 (0e150ed6c4, 2023-07-21)"
   sodipodi:docname="Vorstellungsgrafik.svg"
   inkscape:export-filename="Vorstellungsgrafik.png"
   inkscape:export-xdpi="25.4"
   inkscape:export-ydpi="25.4"
   xmlns:inkscape="http://www.inkscape.org/namespaces/inkscape"
   xmlns:sodipodi="http://sodipodi.sourceforge.net/DTD/sodipodi-0.dtd"
   xmlns="http://www.w3.org/2000/svg"
   xmlns:svg="http://www.w3.org/2000/svg">
  <sodipodi:namedview
     id="namedview1"
     pagecolor="#ffffff"
     bordercolor="#000000"
     borderopacity="0.25"
     inkscape:showpageshadow="2"
     inkscape:pageopacity="0.0"
     inkscape:pagecheckerboard="0"
     inkscape:deskcolor="#d1d1d1"
     inkscape:document-units="mm"
     inkscape:zoom="0.15049399"
     inkscape:cx="2172.8443"
     inkscape:cy="654.51121"
     inkscape:window-width="1280"
     inkscape:window-height="779"
     inkscape:window-x="0"
     inkscape:window-y="0"
     inkscape:window-maximized="1"
     inkscape:current-layer="svg1" />
  <defs
     id="defs1">
    <rect
       x="1832.0726"
       y="122.38908"
       width="2318.565"
       height="1708.7185"
       id="rect4" />
    <rect
       x="2131.4469"
       y="531.24532"
       width="1472.7703"
       height="1141.2124"
       id="rect3" />
    <rect
       x="2076.2689"
       y="232.53225"
       width="1718.7653"
       height="293.25395"
       id="rect2" />
    <rect
       x="2025.0413"
       y="213.37208"
       width="1739.1588"
       height="293.62683"
       id="rect1" />
    <rect
       x="2076.2688"
       y="232.53226"
       width="1471.6911"
       height="184.52938"
       id="rect2-7" />
  </defs>
  <text
     xml:space="preserve"
     transform="matrix(0.26458333,0,0,0.26458333,29.960253,1.4633333e-5)"
     id="text2"
     style="font-weight:bold;font-size:192px;line-height:normal;font-family:'IBM 3270';-inkscape-font-specification:'IBM 3270 Bold';text-align:justify;text-decoration-color:#000000;white-space:pre;shape-inside:url(#rect2);display:inline;opacity:0.996769;fill:#76ad7e;stroke-width:0"><tspan
       x="2076.2695"
       y="410.1332"
       id="tspan5"><tspan
         style="font-weight:normal;font-family:'Miriam Libre';-inkscape-font-specification:'Miriam Libre'"
         id="tspan3">Substitution</tspan></tspan></text>
  <text
     xml:space="preserve"
     transform="matrix(0.26458333,0,0,0.26458333,29.519973,61.805293)"
     id="text2-3"
     style="font-weight:bold;font-size:106.667px;line-height:normal;font-family:'IBM 3270';-inkscape-font-specification:'IBM 3270 Bold';text-align:justify;text-decoration-color:#000000;white-space:pre;shape-inside:url(#rect2-7);display:inline;opacity:0.996769;fill:#76ad7e;stroke-width:0"><tspan
       x="2076.2695"
       y="331.20018"
       id="tspan6">the new art social media</tspan></text>
  <g
     inkscape:label="Logo"
     inkscape:groupmode="layer"
     id="layer1"
     transform="matrix(4.5329682,0,0,4.5329682,-2958.6689,-525.4632)">
    <g
       id="g41"
       transform="matrix(0.25186858,0.08103429,-0.08103429,0.25186858,667.36108,96.367932)">
      <path
         class="cls-1"
         d="m 344.3327,121.90714 c 1.16,52.89 -43.89,86.22 -82.3,104.96 -9.46,-8.18 -18.16,-15.15 -27.27,-21.85 -1.15,-4.41 -2.2,-8.45 -3.21,-12.47 17.27,-9.1 30.9,-20.6 40.54,-34.19 7.56,-10.67 30.54,-43.11 9.02,-79.310004 -1.52,-2.56 -3.24,-5.09 -5.12,-7.54 2.67,-0.32 5.35,-0.48 7.98,-0.48 31.72,0 52.8,22.82 59.62,45.440004 0.49,1.61 0.74,3.4 0.74,5.32 z"
         id="path3"
         style="fill:#bebebe;fill-opacity:1;stroke-width:0px" />
      <path
         class="cls-3"
         d="m 235.37,292.05 c -0.02,-0.97 -0.05,-1.94 -0.09,-2.92 0.04,0.98 0.07,1.95 0.09,2.92 z"
         id="path5"
         style="fill:#ffffff;stroke-width:0px" />
      <path
         class="cls-3"
         d="m 235.28,289.05 c -0.03,-0.7 -0.06,-1.4 -0.1,-2.11 0.04,0.7 0.07,1.41 0.1,2.11 z"
         id="path6"
         style="fill:#ffffff;stroke-width:0px" />
      <path
         class="cls-3"
         d="m 235.11,306.22 c 0.11,-1.6 0.19,-3.21 0.24,-4.84 -0.05,1.63 -0.13,3.24 -0.24,4.84 z"
         id="path7"
         style="fill:#ffffff;stroke-width:0px" />
      <path
         class="cls-3"
         d="m 235.18,286.94 c -0.03,-0.6 -0.07,-1.21 -0.1,-1.82 0.04,0.61 0.07,1.21 0.1,1.82 z"
         id="path8"
         style="fill:#ffffff;stroke-width:0px" />
      <path
         class="cls-3"
         d="m 234.7,311.12 c 0.06,-0.61 0.12,-1.22 0.17,-1.84 -0.05,0.62 -0.11,1.23 -0.17,1.84 z"
         id="path9"
         style="fill:#ffffff;stroke-width:0px" />
      <path
         class="cls-3"
         d="m 234.82,281.43 c -0.05,-0.68 -0.11,-1.37 -0.17,-2.05 0.07,0.69 0.12,1.37 0.17,2.05 z"
         id="path10"
         style="fill:#ffffff;stroke-width:0px" />
      <path
         class="cls-3"
         d="m 234.6,278.82 c -0.11,-1.26 -0.23,-2.53 -0.36,-3.79 0.13,1.26 0.25,2.53 0.36,3.79 z"
         id="path11"
         style="fill:#ffffff;stroke-width:0px" />
      <path
         class="cls-3"
         d="m 233.97,316.75 c 0.12,-0.78 0.23,-1.57 0.34,-2.36 -0.1,0.79 -0.22,1.58 -0.34,2.36 z"
         id="path12"
         style="fill:#ffffff;stroke-width:0px" />
      <path
         class="cls-3"
         d="m 234.02,273.1 c -0.06,-0.6 -0.13,-1.19 -0.2,-1.79 0.07,0.6 0.14,1.19 0.2,1.79 z"
         id="path13"
         style="fill:#ffffff;stroke-width:0px" />
      <path
         class="cls-3"
         d="m 233.57,319.16 c 0.14,-0.8 0.28,-1.6 0.4,-2.41 -0.12,0.81 -0.25,1.61 -0.4,2.41 z"
         id="path14"
         style="fill:#ffffff;stroke-width:0px" />
      <path
         class="cls-3"
         d="m 233.17,321.27 c 0.14,-0.69 0.27,-1.39 0.4,-2.09 -0.13,0.7 -0.26,1.4 -0.4,2.09 z"
         id="path15"
         style="fill:#ffffff;stroke-width:0px" />
      <path
         class="cls-3"
         d="m 231.42,328.5 c 0.19,-0.65 0.37,-1.3 0.54,-1.95 -0.17,0.66 -0.35,1.31 -0.54,1.95 z"
         id="path16"
         style="fill:#ffffff;stroke-width:0px" />
      <path
         class="cls-3"
         d="m 230.74,330.75 c 0.24,-0.74 0.47,-1.49 0.68,-2.25 -0.21,0.76 -0.44,1.51 -0.68,2.25 z"
         id="path17"
         style="fill:#ffffff;stroke-width:0px" />
      <path
         class="cls-3"
         d="m 230,332.97 c 0.26,-0.73 0.5,-1.47 0.74,-2.22 -0.23,0.75 -0.48,1.49 -0.74,2.22 z"
         id="path19"
         style="fill:#ffffff;stroke-width:0px" />
      <path
         class="cls-3"
         d="m 229.57,334.17 c 0.15,-0.4 0.29,-0.8 0.43,-1.2 -0.13,0.4 -0.28,0.8 -0.43,1.2 z"
         id="path20"
         style="fill:#ffffff;stroke-width:0px" />
      <path
         class="cls-3"
         d="m 228.98,335.73 c 0.2,-0.51 0.4,-1.03 0.59,-1.56 -0.19,0.52 -0.39,1.04 -0.59,1.56 z"
         id="path21"
         style="fill:#ffffff;stroke-width:0px" />
      <path
         class="cls-1"
         d="m 113.78999,327.72999 c -1.51489,-52.88103 43.31045,-86.51258 81.59384,-105.5099 9.51467,8.11634 18.26124,15.0278 27.41599,21.66652 1.17957,4.40218 2.25666,8.43505 3.29361,12.44818 -17.20854,9.21568 -30.76107,20.80688 -40.30965,34.46126 -7.48824,10.72049 -30.25004,43.31397 -8.48761,79.36875 1.53715,2.54973 3.27408,5.06814 5.17048,7.50547 -2.66779,0.33791 -5.34666,0.51589 -7.9766,0.53353 -31.71929,0.21286 -52.95194,-22.46518 -59.92357,-45.03891 -0.5008,-1.60666 -0.7628,-3.39495 -0.77569,-5.31491 z"
         id="path3-5"
         style="fill:#bebebe;fill-opacity:1;stroke-width:0px" />
      <path
         class="cls-3"
         d="m 232.6227,223.82714 -1.55,-6.19 c 0.53,2.05 1.05,4.12 1.55,6.19 z"
         id="path23"
         style="fill:#ffffff;stroke-width:0px" />
      <path
         class="cls-3"
         d="m 227.75,338.64 c 0.23,-0.51 0.45,-1.03 0.67,-1.55 -0.21,0.52 -0.44,1.04 -0.67,1.55 z"
         id="path24"
         style="fill:#ffffff;stroke-width:0px" />
      <path
         class="cls-3"
         d="m 225.54,343.13 c 0.26,-0.49 0.52,-0.98 0.77,-1.47 -0.25,0.49 -0.51,0.98 -0.77,1.47 z"
         id="path25"
         style="fill:#ffffff;stroke-width:0px" />
      <path
         class="cls-3"
         d="m 217.7,354.36 c 0.44,-0.49 0.86,-0.98 1.28,-1.49 -0.41,0.51 -0.84,1 -1.28,1.49 z"
         id="path26"
         style="fill:#ffffff;stroke-width:0px" />
      <path
         class="cls-3"
         d="m 216.85,355.3 c 0.29,-0.31 0.57,-0.62 0.85,-0.94 -0.27,0.32 -0.56,0.63 -0.85,0.94 z"
         id="path27"
         style="fill:#ffffff;stroke-width:0px" />
      <path
         class="cls-3"
         d="m 215.97,356.22 c 0.3,-0.3 0.59,-0.61 0.88,-0.92 -0.28,0.31 -0.58,0.62 -0.88,0.92 z"
         id="path28"
         style="fill:#ffffff;stroke-width:0px" />
      <path
         class="cls-3"
         d="m 214.32,357.85 c 0.17,-0.16 0.34,-0.32 0.5,-0.48 -0.16,0.17 -0.33,0.33 -0.5,0.48 z"
         id="path29"
         style="fill:#ffffff;stroke-width:0px" />
      <path
         class="cls-3"
         d="m 213.03,359.03 c 0.26,-0.23 0.52,-0.46 0.77,-0.7 -0.25,0.25 -0.51,0.48 -0.77,0.7 z"
         id="path30"
         style="fill:#ffffff;stroke-width:0px" />
      <path
         class="cls-3"
         d="m 211.91,360 c 0.38,-0.32 0.75,-0.64 1.12,-0.97 -0.37,0.34 -0.74,0.66 -1.12,0.97 z"
         id="path31"
         style="fill:#ffffff;stroke-width:0px" />
      <path
         class="cls-3"
         d="m 210.72,360.98 c 0.39,-0.31 0.78,-0.63 1.15,-0.94 -0.38,0.33 -0.76,0.64 -1.15,0.94 z"
         id="path32"
         style="fill:#ffffff;stroke-width:0px" />
      <path
         class="cls-3"
         d="m 209.73,361.76 c 0.33,-0.26 0.67,-0.52 0.99,-0.78 -0.33,0.27 -0.66,0.53 -0.99,0.78 z"
         id="path33"
         style="fill:#ffffff;stroke-width:0px" />
      <path
         class="cls-3"
         d="m 208.28,362.83 c 0.38,-0.27 0.75,-0.55 1.12,-0.82 -0.36,0.28 -0.74,0.55 -1.12,0.82 z"
         id="path34"
         style="fill:#ffffff;stroke-width:0px" />
      <path
         class="cls-3"
         d="m 207.08,363.67 1.2,-0.84 c -0.39,0.29 -0.79,0.57 -1.2,0.84 z"
         id="path35"
         style="fill:#ffffff;stroke-width:0px" />
      <path
         class="cls-3"
         d="m 205.85,364.48 c 0.42,-0.27 0.83,-0.54 1.23,-0.81 -0.4,0.28 -0.81,0.55 -1.23,0.81 z"
         id="path36"
         style="fill:#ffffff;stroke-width:0px" />
      <path
         class="cls-3"
         d="m 204.6,365.27 c 0.42,-0.26 0.84,-0.52 1.25,-0.79 -0.41,0.28 -0.82,0.54 -1.25,0.79 z"
         id="path37"
         style="fill:#ffffff;stroke-width:0px" />
      <path
         class="cls-3"
         d="m 203.6,365.87 c 0.34,-0.2 0.66,-0.39 1,-0.6 -0.33,0.21 -0.66,0.41 -1,0.6 z"
         id="path38"
         style="fill:#ffffff;stroke-width:0px" />
      <path
         class="cls-3"
         d="m 200.63,367.5 c 0.46,-0.23 0.91,-0.47 1.35,-0.72 -0.44,0.26 -0.89,0.5 -1.35,0.72 z"
         id="path39"
         style="fill:#ffffff;stroke-width:0px" />
      <path
         class="cls-3"
         d="m 199.36,368.14 c 0.43,-0.21 0.85,-0.42 1.27,-0.64 -0.42,0.23 -0.84,0.44 -1.27,0.64 z"
         id="path40"
         style="fill:#ffffff;stroke-width:0px" />
      <path
         class="cls-3"
         d="m 196.66,369.4 c 0.39,-0.18 0.78,-0.35 1.17,-0.53 -0.38,0.18 -0.77,0.36 -1.17,0.53 z"
         id="path41"
         style="fill:#ffffff;stroke-width:0px" />
    </g>
    <path
       class="cls-2"
       d="m 708.18555,169.53994 c 2.05259,2.8033 3.8873,5.57542 6.02837,9.15763 0.13713,0.23033 0.27768,0.46733 0.41993,0.70766 0.12363,0.22043 0.2506,0.43916 0.37586,0.65456 2.25711,3.95585 4.49954,7.62904 5.27769,11.62046 2.06816,10.59897 -4.45343,25.44399 -16.91086,25.42724 20.82812,1.69539 40.84481,-11.04523 47.52203,-31.7992 4.29563,-13.35155 2.17305,-27.22827 -4.656,-38.29446 -0.35663,-0.57612 -0.72405,-1.14459 -1.10479,-1.70623 -1.71228,-2.42699 -3.08841,-4.076 -5.0939,-5.73849 -2.16415,-1.79136 -4.07549,-2.69258 -6.0603,-3.33949 -1.08203,-0.41205 -2.19485,-0.72839 -3.314,-0.93003 -0.23982,-0.0494 -0.47793,-0.0954 -0.71263,-0.13478 -0.87843,-0.14643 -1.73106,-0.22619 -2.56292,-0.2409 -0.37325,-0.006 -0.74137,-0.002 -1.10599,0.0166 -0.14889,0.005 -0.29688,0.0157 -0.44567,0.0289 -5.40191,0.40216 -9.66681,3.4298 -12.27805,6.80325 -4.27362,5.30949 -5.59624,12.84138 -6.23466,20.90747 -0.0367,0.48569 -0.071,0.97219 -0.10602,1.46121 -0.13963,2.00627 -0.24302,4.03811 -0.34973,6.07165 -0.0294,0.5492 -0.0571,1.10173 -0.0865,1.65094 -0.0428,0.78948 -0.0855,1.57897 -0.13334,2.36683 -1.72963,-2.48538 -3.46714,-5.08447 -5.59507,-8.37061 -0.28236,-0.43549 -0.57155,-0.8843 -0.86928,-1.34975 -0.27894,-0.42883 -0.56391,-0.87349 -0.854,-1.32815 -5.74604,-8.96395 -11.33249,-26.7345 6.65836,-36.53035 1.13566,-0.61853 2.94017,-1.20809 5.22179,-1.30228 -20.98945,-1.91961 -41.24257,10.85612 -47.9676,31.75869 -4.50227,13.99382 -1.95238,28.56389 5.6741,39.87274 0.008,0.0108 0.0136,0.0183 0.0187,0.0283 0.0179,0.0308 0.18559,0.3043 0.48135,0.74132 0.98503,1.45647 3.38888,4.72299 6.37134,6.75261 2.5788,1.75522 7.01164,3.01743 11.42949,2.84898 2.3553,-0.09 4.708,-0.58651 6.77299,-1.63147 8.3024,-4.19952 12.01868,-14.62733 13.12892,-24.22037 0.0233,-0.1676 0.0492,-0.33438 0.07,-0.50278 0.34947,-2.50298 0.57182,-4.9996 0.74172,-7.47142 0.0418,-0.56188 0.0786,-1.12539 0.1112,-1.68467 0.048,-0.77113 0.0918,-1.53804 0.13738,-2.30161 z M 721.74551,125.605 c 25.1113,8.07911 38.91813,34.98433 30.839,60.09562 -8.07911,25.1113 -34.98433,38.91813 -60.09562,30.83901 -25.1113,-8.07912 -38.91813,-34.98433 -30.83901,-60.09563 8.07912,-25.1113 34.98514,-38.92064 60.09563,-30.839 z"
       id="path4"
       style="fill:#76ad7e;fill-opacity:1;stroke-width:0px"
       inkscape:label="path4" />
  </g>
  <text
     xml:space="preserve"
     transform="matrix(0.26458333,0,0,0.26458333,14.328212,89.958338)"
     id="text1"
     style="font-size:160px;line-height:normal;font-family:'Miriam Libre';-inkscape-font-specification:'Miriam Libre';text-align:justify;text-decoration-color:#000000;white-space:pre;shape-inside:url(#rect3);display:inline;opacity:0.996769;fill:#000000;fill-opacity:1;stroke-width:0"><tspan
       x="2131.4473"
       y="669.32682"
       id="tspan8"><tspan
         dx="0 0 0 0 0 0 0 0 0 0 0 0 0 0 0 0.00012207031"
         id="tspan7">- decentralized&#10;</tspan></tspan><tspan
       x="2131.4473"
       y="869.32682"
       id="tspan9">- free&#10;</tspan><tspan
       x="2131.4473"
       y="1069.3268"
       id="tspan10">- open source</tspan></text>
</svg>
